<svg width="94" height="309" viewBox="0 0 94 309" fill="none" xmlns="http://www.w3.org/2000/svg">
<path d="M12.7598 302.182C12.1087 302.742 11.3796 303.172 10.5723 303.471C9.76497 303.771 8.92839 303.921 8.0625 303.921C7.39844 303.921 6.75716 303.833 6.13867 303.657C5.52669 303.488 4.95052 303.247 4.41016 302.934C3.8763 302.615 3.38802 302.234 2.94531 301.792C2.5026 301.349 2.12174 300.861 1.80273 300.327C1.49023 299.787 1.24609 299.21 1.07031 298.598C0.901042 297.98 0.816406 297.339 0.816406 296.675C0.816406 296.01 0.901042 295.369 1.07031 294.751C1.24609 294.132 1.49023 293.556 1.80273 293.022C2.12174 292.482 2.5026 291.99 2.94531 291.548C3.38802 291.105 3.8763 290.727 4.41016 290.415C4.95052 290.096 5.52669 289.852 6.13867 289.682C6.75716 289.507 7.39844 289.419 8.0625 289.419C8.92839 289.419 9.76497 289.568 10.5723 289.868C11.3796 290.161 12.1087 290.591 12.7598 291.157L11.2754 293.598C10.8652 293.156 10.3802 292.817 9.82031 292.583C9.26042 292.342 8.67448 292.221 8.0625 292.221C7.44401 292.221 6.86458 292.339 6.32422 292.573C5.78385 292.807 5.31185 293.126 4.9082 293.53C4.50456 293.927 4.18555 294.399 3.95117 294.946C3.7168 295.486 3.59961 296.063 3.59961 296.675C3.59961 297.287 3.7168 297.863 3.95117 298.403C4.18555 298.937 4.50456 299.406 4.9082 299.809C5.31185 300.213 5.78385 300.532 6.32422 300.766C6.86458 301.001 7.44401 301.118 8.0625 301.118C8.67448 301.118 9.26042 301.001 9.82031 300.766C10.3802 300.525 10.8652 300.184 11.2754 299.741L12.7598 302.182ZM23.8438 298.296C23.8438 299.077 23.7038 299.806 23.4238 300.483C23.1439 301.154 22.763 301.736 22.2812 302.231C21.7995 302.719 21.2331 303.107 20.582 303.393C19.9375 303.673 19.2441 303.813 18.502 303.813C17.7663 303.813 17.0729 303.673 16.4219 303.393C15.7773 303.107 15.2109 302.719 14.7227 302.231C14.2409 301.736 13.86 301.154 13.5801 300.483C13.3001 299.806 13.1602 299.077 13.1602 298.296C13.1602 297.501 13.3001 296.766 13.5801 296.089C13.86 295.412 14.2409 294.829 14.7227 294.341C15.2109 293.846 15.7773 293.458 16.4219 293.178C17.0729 292.899 17.7663 292.759 18.502 292.759C19.2441 292.759 19.9375 292.892 20.582 293.159C21.2331 293.419 21.7995 293.794 22.2812 294.282C22.763 294.764 23.1439 295.346 23.4238 296.03C23.7038 296.707 23.8438 297.462 23.8438 298.296ZM21.1582 298.296C21.1582 297.866 21.0866 297.479 20.9434 297.134C20.8066 296.782 20.6178 296.483 20.377 296.235C20.1361 295.981 19.8529 295.789 19.5273 295.659C19.2083 295.522 18.8665 295.454 18.502 295.454C18.1374 295.454 17.7923 295.522 17.4668 295.659C17.1478 295.789 16.8678 295.981 16.627 296.235C16.3926 296.483 16.207 296.782 16.0703 297.134C15.9336 297.479 15.8652 297.866 15.8652 298.296C15.8652 298.699 15.9336 299.074 16.0703 299.419C16.207 299.764 16.3926 300.063 16.627 300.317C16.8678 300.571 17.1478 300.773 17.4668 300.923C17.7923 301.066 18.1374 301.137 18.502 301.137C18.8665 301.137 19.2083 301.069 19.5273 300.932C19.8529 300.796 20.1361 300.604 20.377 300.356C20.6178 300.109 20.8066 299.809 20.9434 299.458C21.0866 299.106 21.1582 298.719 21.1582 298.296ZM27.9844 303.618H25.3184V293.159H25.9629L26.8418 294.175C27.2715 293.784 27.7565 293.484 28.2969 293.276C28.8438 293.061 29.4134 292.954 30.0059 292.954C30.6439 292.954 31.2461 293.078 31.8125 293.325C32.3789 293.566 32.8737 293.901 33.2969 294.331C33.7201 294.754 34.0521 295.252 34.293 295.825C34.5404 296.391 34.6641 296.997 34.6641 297.641V303.618H31.998V297.641C31.998 297.368 31.946 297.111 31.8418 296.87C31.7376 296.622 31.5944 296.408 31.4121 296.225C31.2298 296.043 31.0182 295.9 30.7773 295.796C30.5365 295.691 30.2793 295.639 30.0059 295.639C29.7259 295.639 29.4622 295.691 29.2148 295.796C28.9674 295.9 28.7526 296.043 28.5703 296.225C28.388 296.408 28.2448 296.622 28.1406 296.87C28.0365 297.111 27.9844 297.368 27.9844 297.641V303.618ZM41.6758 303.618C41.0312 303.618 40.4258 303.497 39.8594 303.257C39.293 303.009 38.7949 302.674 38.3652 302.251C37.9421 301.821 37.6068 301.323 37.3594 300.757C37.1185 300.19 36.998 299.585 36.998 298.94V295.835H35.6992V293.178H36.998V288.999H39.6543V293.178H43.6973V295.835H39.6543V298.94C39.6543 299.22 39.7064 299.484 39.8105 299.731C39.9147 299.972 40.0579 300.184 40.2402 300.366C40.4225 300.548 40.6374 300.695 40.8848 300.805C41.1322 300.91 41.3958 300.962 41.6758 300.962H43.6973V303.618H41.6758ZM55.3281 303.618H54.6836L53.6484 302.182C53.3945 302.41 53.1243 302.625 52.8379 302.827C52.5579 303.022 52.2617 303.195 51.9492 303.344C51.6367 303.488 51.3145 303.602 50.9824 303.686C50.6569 303.771 50.3249 303.813 49.9863 303.813C49.2507 303.813 48.5573 303.69 47.9062 303.442C47.2617 303.195 46.6953 302.837 46.207 302.368C45.7253 301.893 45.3444 301.313 45.0645 300.63C44.7845 299.946 44.6445 299.168 44.6445 298.296C44.6445 297.482 44.7845 296.736 45.0645 296.059C45.3444 295.376 45.7253 294.79 46.207 294.302C46.6953 293.813 47.2617 293.436 47.9062 293.169C48.5573 292.895 49.2507 292.759 49.9863 292.759C50.3249 292.759 50.6602 292.801 50.9922 292.885C51.3242 292.97 51.6465 293.087 51.959 293.237C52.2715 293.387 52.5677 293.563 52.8477 293.764C53.1341 293.966 53.401 294.184 53.6484 294.419L54.6836 293.178H55.3281V303.618ZM52.6426 298.296C52.6426 297.931 52.571 297.58 52.4277 297.241C52.291 296.896 52.1022 296.593 51.8613 296.333C51.6204 296.066 51.3372 295.854 51.0117 295.698C50.6927 295.535 50.3509 295.454 49.9863 295.454C49.6217 295.454 49.2767 295.516 48.9512 295.639C48.6322 295.763 48.3522 295.945 48.1113 296.186C47.877 296.427 47.6914 296.727 47.5547 297.085C47.418 297.436 47.3496 297.84 47.3496 298.296C47.3496 298.751 47.418 299.158 47.5547 299.516C47.6914 299.868 47.877 300.164 48.1113 300.405C48.3522 300.646 48.6322 300.828 48.9512 300.952C49.2767 301.076 49.6217 301.137 49.9863 301.137C50.3509 301.137 50.6927 301.059 51.0117 300.903C51.3372 300.74 51.6204 300.529 51.8613 300.268C52.1022 300.001 52.291 299.699 52.4277 299.36C52.571 299.015 52.6426 298.66 52.6426 298.296ZM66.5098 295.239L64.5566 297.202C64.459 296.928 64.3255 296.684 64.1562 296.469C63.987 296.248 63.7949 296.063 63.5801 295.913C63.3717 295.763 63.1439 295.649 62.8965 295.571C62.6491 295.493 62.3952 295.454 62.1348 295.454C61.7702 295.454 61.4251 295.529 61.0996 295.678C60.7806 295.828 60.5007 296.04 60.2598 296.313C60.0254 296.58 59.8398 296.899 59.7031 297.27C59.5664 297.641 59.498 298.052 59.498 298.501C59.498 298.865 59.5664 299.207 59.7031 299.526C59.8398 299.845 60.0254 300.125 60.2598 300.366C60.5007 300.607 60.7806 300.796 61.0996 300.932C61.4251 301.069 61.7702 301.137 62.1348 301.137C62.3952 301.137 62.6458 301.102 62.8867 301.03C63.1276 300.958 63.3522 300.858 63.5605 300.727C63.7754 300.591 63.9642 300.428 64.127 300.239C64.2962 300.044 64.4329 299.829 64.5371 299.594L66.4902 301.557C66.2428 301.909 65.9564 302.225 65.6309 302.505C65.3118 302.785 64.9635 303.022 64.5859 303.218C64.2148 303.413 63.821 303.559 63.4043 303.657C62.9941 303.761 62.571 303.813 62.1348 303.813C61.3991 303.813 60.7057 303.677 60.0547 303.403C59.4102 303.123 58.8438 302.742 58.3555 302.26C57.8737 301.779 57.4928 301.216 57.2129 300.571C56.9329 299.927 56.793 299.236 56.793 298.501C56.793 297.7 56.9329 296.951 57.2129 296.255C57.4928 295.558 57.8737 294.953 58.3555 294.438C58.8438 293.917 59.4102 293.507 60.0547 293.208C60.7057 292.908 61.3991 292.759 62.1348 292.759C62.571 292.759 62.9974 292.814 63.4141 292.925C63.8372 293.035 64.2376 293.198 64.6152 293.413C64.9993 293.621 65.3509 293.878 65.6699 294.184C65.9954 294.49 66.2754 294.842 66.5098 295.239ZM73.0625 303.618C72.418 303.618 71.8125 303.497 71.2461 303.257C70.6797 303.009 70.1816 302.674 69.752 302.251C69.3288 301.821 68.9935 301.323 68.7461 300.757C68.5052 300.19 68.3848 299.585 68.3848 298.94V295.835H67.0859V293.178H68.3848V288.999H71.041V293.178H75.084V295.835H71.041V298.94C71.041 299.22 71.0931 299.484 71.1973 299.731C71.3014 299.972 71.4447 300.184 71.627 300.366C71.8092 300.548 72.0241 300.695 72.2715 300.805C72.5189 300.91 72.7826 300.962 73.0625 300.962H75.084V303.618H73.0625Z" fill="#1F1F39"/>
<path d="M4.38086 258.702H1.57812V244.698H4.38086V250.303H9.97656V244.698H12.7793V258.702H9.97656V253.106H4.38086V258.702ZM19.1074 256.143C19.2116 256.176 19.3158 256.198 19.4199 256.211C19.5241 256.218 19.6283 256.221 19.7324 256.221C19.9928 256.221 20.2435 256.185 20.4844 256.114C20.7253 256.042 20.9499 255.941 21.1582 255.811C21.373 255.674 21.5618 255.512 21.7246 255.323C21.8939 255.127 22.0306 254.913 22.1348 254.678L24.0879 256.641C23.8405 256.993 23.554 257.308 23.2285 257.588C22.9095 257.868 22.5612 258.106 22.1836 258.301C21.8125 258.497 21.4186 258.643 21.002 258.741C20.5918 258.845 20.1686 258.897 19.7324 258.897C18.9967 258.897 18.3034 258.76 17.6523 258.487C17.0078 258.213 16.4414 257.833 15.9531 257.344C15.4714 256.856 15.0905 256.277 14.8105 255.606C14.5306 254.929 14.3906 254.187 14.3906 253.379C14.3906 252.553 14.5306 251.797 14.8105 251.114C15.0905 250.43 15.4714 249.847 15.9531 249.366C16.4414 248.884 17.0078 248.51 17.6523 248.243C18.3034 247.976 18.9967 247.842 19.7324 247.842C20.1686 247.842 20.5951 247.894 21.0117 247.999C21.4284 248.103 21.8223 248.252 22.1934 248.448C22.571 248.643 22.9225 248.884 23.248 249.17C23.5736 249.45 23.86 249.766 24.1074 250.118L19.1074 256.143ZM20.4746 250.645C20.3509 250.599 20.2272 250.57 20.1035 250.557C19.9863 250.544 19.8626 250.538 19.7324 250.538C19.3678 250.538 19.0228 250.606 18.6973 250.743C18.3783 250.873 18.0983 251.062 17.8574 251.309C17.623 251.556 17.4375 251.856 17.3008 252.208C17.1641 252.553 17.0957 252.943 17.0957 253.379C17.0957 253.477 17.099 253.588 17.1055 253.711C17.1185 253.835 17.1348 253.962 17.1543 254.092C17.1803 254.216 17.2096 254.336 17.2422 254.454C17.2747 254.571 17.3171 254.675 17.3691 254.766L20.4746 250.645ZM28.1406 258.702H25.4551V244.083H28.1406V258.702ZM32.8672 262.686H30.1816V248.243H30.8262L31.8906 249.502C32.1315 249.275 32.3952 249.06 32.6816 248.858C32.9681 248.656 33.2643 248.484 33.5703 248.34C33.8828 248.191 34.2051 248.073 34.5371 247.989C34.8691 247.904 35.2044 247.862 35.543 247.862C36.2786 247.862 36.9688 247.995 37.6133 248.262C38.2643 248.523 38.8307 248.894 39.3125 249.375C39.8008 249.857 40.1849 250.44 40.4648 251.124C40.7448 251.801 40.8848 252.553 40.8848 253.379C40.8848 254.239 40.7448 255.014 40.4648 255.704C40.1849 256.387 39.8008 256.97 39.3125 257.452C38.8307 257.927 38.2643 258.292 37.6133 258.545C36.9688 258.799 36.2786 258.926 35.543 258.926C35.3086 258.926 35.0742 258.9 34.8398 258.848C34.612 258.796 34.3841 258.728 34.1562 258.643C33.9349 258.552 33.7135 258.451 33.4922 258.34C33.2773 258.23 33.069 258.116 32.8672 257.999V262.686ZM38.209 253.379C38.209 252.937 38.1374 252.54 37.9941 252.188C37.8574 251.836 37.6686 251.54 37.4277 251.299C37.1868 251.052 36.9036 250.863 36.5781 250.733C36.2526 250.603 35.9076 250.538 35.543 250.538C35.1784 250.538 34.8333 250.603 34.5078 250.733C34.1888 250.863 33.9089 251.052 33.668 251.299C33.4271 251.54 33.235 251.836 33.0918 252.188C32.9551 252.54 32.8867 252.937 32.8867 253.379C32.8867 253.803 32.9551 254.19 33.0918 254.542C33.235 254.893 33.4271 255.193 33.668 255.44C33.9089 255.687 34.1888 255.879 34.5078 256.016C34.8333 256.153 35.1784 256.221 35.543 256.221C35.9076 256.221 36.2526 256.153 36.5781 256.016C36.9036 255.879 37.1868 255.687 37.4277 255.44C37.6686 255.193 37.8574 254.893 37.9941 254.542C38.1374 254.19 38.209 253.803 38.209 253.379Z" fill="#1F1F39"/>
<path d="M4.38086 202.583V208.189H7.18359C7.56771 208.189 7.92904 208.117 8.26758 207.974C8.60612 207.824 8.90234 207.623 9.15625 207.369C9.41016 207.115 9.60872 206.819 9.75195 206.48C9.90169 206.135 9.97656 205.77 9.97656 205.386C9.97656 205.002 9.90169 204.641 9.75195 204.302C9.60872 203.957 9.41016 203.658 9.15625 203.404C8.90234 203.15 8.60612 202.951 8.26758 202.808C7.92904 202.658 7.56771 202.583 7.18359 202.583H4.38086ZM4.38086 213.785H1.57812V199.781H7.18359C7.69792 199.781 8.19271 199.849 8.66797 199.986C9.14323 200.116 9.58594 200.305 9.99609 200.552C10.4128 200.793 10.7904 201.086 11.1289 201.431C11.474 201.77 11.7669 202.147 12.0078 202.564C12.2552 202.981 12.444 203.427 12.5742 203.902C12.7109 204.377 12.7793 204.872 12.7793 205.386C12.7793 206.154 12.6328 206.88 12.3398 207.564C12.0469 208.241 11.6465 208.833 11.1387 209.341C10.6309 209.849 10.0352 210.25 9.35156 210.542C8.67448 210.835 7.95182 210.982 7.18359 210.982H4.38086V213.785ZM16.8125 213.785H14.1465V203.326H14.791L15.6699 204.566C16.0996 204.175 16.5879 203.876 17.1348 203.667C17.6816 203.453 18.248 203.345 18.834 203.345H21.1875V206.001H18.834C18.554 206.001 18.2904 206.054 18.043 206.158C17.7956 206.262 17.5807 206.405 17.3984 206.587C17.2161 206.77 17.0729 206.985 16.9688 207.232C16.8646 207.479 16.8125 207.743 16.8125 208.023V213.785ZM25.5723 200.484C25.5723 200.731 25.5234 200.962 25.4258 201.177C25.3346 201.392 25.2077 201.581 25.0449 201.744C24.8822 201.9 24.6901 202.027 24.4688 202.125C24.2539 202.216 24.0228 202.261 23.7754 202.261C23.528 202.261 23.2936 202.216 23.0723 202.125C22.8574 202.027 22.6686 201.9 22.5059 201.744C22.3496 201.581 22.2227 201.392 22.125 201.177C22.0339 200.962 21.9883 200.731 21.9883 200.484C21.9883 200.243 22.0339 200.015 22.125 199.8C22.2227 199.579 22.3496 199.39 22.5059 199.234C22.6686 199.071 22.8574 198.944 23.0723 198.853C23.2936 198.755 23.528 198.707 23.7754 198.707C24.0228 198.707 24.2539 198.755 24.4688 198.853C24.6901 198.944 24.8822 199.071 25.0449 199.234C25.2077 199.39 25.3346 199.579 25.4258 199.8C25.5234 200.015 25.5723 200.243 25.5723 200.484ZM25.1133 213.785H22.4277V203.326H25.1133V213.785ZM30.123 213.785L26.1387 203.326H29.1758L31.4609 209.849L33.7363 203.326H36.7832L32.7988 213.785H30.123ZM47.6133 213.785H46.9688L45.9336 212.349C45.6797 212.577 45.4095 212.792 45.123 212.994C44.8431 213.189 44.5469 213.361 44.2344 213.511C43.9219 213.654 43.5996 213.768 43.2676 213.853C42.9421 213.938 42.61 213.98 42.2715 213.98C41.5358 213.98 40.8424 213.856 40.1914 213.609C39.5469 213.361 38.9805 213.003 38.4922 212.535C38.0104 212.059 37.6296 211.48 37.3496 210.796C37.0697 210.113 36.9297 209.335 36.9297 208.462C36.9297 207.649 37.0697 206.903 37.3496 206.226C37.6296 205.542 38.0104 204.957 38.4922 204.468C38.9805 203.98 39.5469 203.602 40.1914 203.335C40.8424 203.062 41.5358 202.925 42.2715 202.925C42.61 202.925 42.9453 202.968 43.2773 203.052C43.6094 203.137 43.9316 203.254 44.2441 203.404C44.5566 203.554 44.8529 203.729 45.1328 203.931C45.4193 204.133 45.6862 204.351 45.9336 204.585L46.9688 203.345H47.6133V213.785ZM44.9277 208.462C44.9277 208.098 44.8561 207.746 44.7129 207.408C44.5762 207.063 44.3874 206.76 44.1465 206.5C43.9056 206.233 43.6224 206.021 43.2969 205.865C42.9779 205.702 42.6361 205.621 42.2715 205.621C41.9069 205.621 41.5618 205.682 41.2363 205.806C40.9173 205.93 40.6374 206.112 40.3965 206.353C40.1621 206.594 39.9766 206.893 39.8398 207.251C39.7031 207.603 39.6348 208.007 39.6348 208.462C39.6348 208.918 39.7031 209.325 39.8398 209.683C39.9766 210.035 40.1621 210.331 40.3965 210.572C40.6374 210.813 40.9173 210.995 41.2363 211.119C41.5618 211.242 41.9069 211.304 42.2715 211.304C42.6361 211.304 42.9779 211.226 43.2969 211.07C43.6224 210.907 43.9056 210.695 44.1465 210.435C44.3874 210.168 44.5762 209.865 44.7129 209.527C44.8561 209.182 44.9277 208.827 44.9277 208.462ZM58.7949 205.406L56.8418 207.369C56.7441 207.095 56.6107 206.851 56.4414 206.636C56.2721 206.415 56.0801 206.229 55.8652 206.08C55.6569 205.93 55.429 205.816 55.1816 205.738C54.9342 205.66 54.6803 205.621 54.4199 205.621C54.0553 205.621 53.7103 205.695 53.3848 205.845C53.0658 205.995 52.7858 206.207 52.5449 206.48C52.3105 206.747 52.125 207.066 51.9883 207.437C51.8516 207.808 51.7832 208.218 51.7832 208.667C51.7832 209.032 51.8516 209.374 51.9883 209.693C52.125 210.012 52.3105 210.292 52.5449 210.533C52.7858 210.774 53.0658 210.962 53.3848 211.099C53.7103 211.236 54.0553 211.304 54.4199 211.304C54.6803 211.304 54.931 211.268 55.1719 211.197C55.4128 211.125 55.6374 211.024 55.8457 210.894C56.0605 210.757 56.2493 210.595 56.4121 210.406C56.5814 210.21 56.7181 209.996 56.8223 209.761L58.7754 211.724C58.528 212.076 58.2415 212.391 57.916 212.671C57.597 212.951 57.2487 213.189 56.8711 213.384C56.5 213.58 56.1061 213.726 55.6895 213.824C55.2793 213.928 54.8561 213.98 54.4199 213.98C53.6842 213.98 52.9909 213.843 52.3398 213.57C51.6953 213.29 51.1289 212.909 50.6406 212.427C50.1589 211.945 49.778 211.382 49.498 210.738C49.2181 210.093 49.0781 209.403 49.0781 208.667C49.0781 207.867 49.2181 207.118 49.498 206.421C49.778 205.725 50.1589 205.119 50.6406 204.605C51.1289 204.084 51.6953 203.674 52.3398 203.375C52.9909 203.075 53.6842 202.925 54.4199 202.925C54.8561 202.925 55.2826 202.981 55.6992 203.091C56.1224 203.202 56.5228 203.365 56.9004 203.58C57.2845 203.788 57.6361 204.045 57.9551 204.351C58.2806 204.657 58.5605 205.009 58.7949 205.406ZM62.623 217.769V215.083L64.1074 215.103C64.3678 215.103 64.6185 215.061 64.8594 214.976C65.1003 214.891 65.3216 214.774 65.5234 214.625C65.7318 214.475 65.9141 214.296 66.0703 214.087C66.2266 213.886 66.3535 213.664 66.4512 213.423C66.1582 213.547 65.8587 213.671 65.5527 213.794C65.2533 213.918 64.9505 213.98 64.6445 213.98C64 213.98 63.3945 213.866 62.8281 213.638C62.2617 213.41 61.7637 213.088 61.334 212.671C60.9108 212.248 60.5755 211.737 60.3281 211.138C60.0872 210.533 59.9668 209.856 59.9668 209.107V203.326H62.623V209.107C62.623 209.478 62.6751 209.804 62.7793 210.083C62.89 210.357 63.0365 210.588 63.2188 210.777C63.401 210.959 63.6126 211.096 63.8535 211.187C64.1009 211.278 64.3646 211.324 64.6445 211.324C64.918 211.324 65.1751 211.262 65.416 211.138C65.6634 211.008 65.8783 210.839 66.0605 210.63C66.2428 210.422 66.3861 210.188 66.4902 209.927C66.5944 209.66 66.6465 209.387 66.6465 209.107V203.326H69.332V212.466C69.3255 213.202 69.1823 213.892 68.9023 214.537C68.6224 215.181 68.2383 215.744 67.75 216.226C67.2682 216.708 66.7051 217.089 66.0605 217.369C65.416 217.649 64.7259 217.789 63.9902 217.789L62.623 217.769Z" fill="#1F1F39"/>
<path d="M7.45703 168.868H4.66406V157.667H0.455078V154.864H11.6562V157.667H7.45703V168.868ZM15.377 166.309C15.4811 166.342 15.5853 166.365 15.6895 166.378C15.7936 166.384 15.8978 166.387 16.002 166.387C16.2624 166.387 16.513 166.352 16.7539 166.28C16.9948 166.208 17.2194 166.108 17.4277 165.977C17.6426 165.841 17.8314 165.678 17.9941 165.489C18.1634 165.294 18.3001 165.079 18.4043 164.844L20.3574 166.807C20.11 167.159 19.8236 167.475 19.498 167.755C19.179 168.035 18.8307 168.272 18.4531 168.468C18.082 168.663 17.6882 168.809 17.2715 168.907C16.8613 169.011 16.4382 169.063 16.002 169.063C15.2663 169.063 14.5729 168.927 13.9219 168.653C13.2773 168.38 12.7109 167.999 12.2227 167.51C11.7409 167.022 11.36 166.443 11.0801 165.772C10.8001 165.095 10.6602 164.353 10.6602 163.546C10.6602 162.719 10.8001 161.964 11.0801 161.28C11.36 160.596 11.7409 160.014 12.2227 159.532C12.7109 159.05 13.2773 158.676 13.9219 158.409C14.5729 158.142 15.2663 158.009 16.002 158.009C16.4382 158.009 16.8646 158.061 17.2812 158.165C17.6979 158.269 18.0918 158.419 18.4629 158.614C18.8405 158.809 19.1921 159.05 19.5176 159.337C19.8431 159.617 20.1296 159.932 20.377 160.284L15.377 166.309ZM16.7441 160.811C16.6204 160.766 16.4967 160.736 16.373 160.723C16.2559 160.71 16.1322 160.704 16.002 160.704C15.6374 160.704 15.2923 160.772 14.9668 160.909C14.6478 161.039 14.3678 161.228 14.127 161.475C13.8926 161.723 13.707 162.022 13.5703 162.374C13.4336 162.719 13.3652 163.109 13.3652 163.546C13.3652 163.643 13.3685 163.754 13.375 163.878C13.388 164.001 13.4043 164.128 13.4238 164.259C13.4499 164.382 13.4792 164.503 13.5117 164.62C13.5443 164.737 13.5866 164.841 13.6387 164.932L16.7441 160.811ZM24.3906 168.868H21.7246V158.409H22.3691L23.248 159.649C23.6777 159.259 24.166 158.959 24.7129 158.751C25.2598 158.536 25.8262 158.428 26.4121 158.428H28.7656V161.085H26.4121C26.1322 161.085 25.8685 161.137 25.6211 161.241C25.3737 161.345 25.1589 161.488 24.9766 161.671C24.7943 161.853 24.651 162.068 24.5469 162.315C24.4427 162.563 24.3906 162.826 24.3906 163.106V168.868ZM43.3066 168.868H40.6504V162.227C40.6504 162.045 40.6146 161.872 40.543 161.71C40.4779 161.547 40.3835 161.404 40.2598 161.28C40.1361 161.156 39.9928 161.062 39.8301 160.997C39.6673 160.925 39.4948 160.889 39.3125 160.889C39.1302 160.889 38.9577 160.925 38.7949 160.997C38.6387 161.062 38.4987 161.156 38.375 161.28C38.2578 161.404 38.1634 161.547 38.0918 161.71C38.0267 161.872 37.9941 162.045 37.9941 162.227V168.868H35.3281V162.227C35.3281 162.045 35.2923 161.872 35.2207 161.71C35.1556 161.547 35.0612 161.404 34.9375 161.28C34.8138 161.156 34.6706 161.062 34.5078 160.997C34.3451 160.925 34.1725 160.889 33.9902 160.889C33.8079 160.889 33.6354 160.925 33.4727 160.997C33.3164 161.062 33.1764 161.156 33.0527 161.28C32.9355 161.404 32.8411 161.547 32.7695 161.71C32.7044 161.872 32.6719 162.045 32.6719 162.227V168.868H30.0059V158.409H30.6504L31.373 159.21C31.7441 158.897 32.151 158.656 32.5938 158.487C33.043 158.311 33.5085 158.223 33.9902 158.223C34.4785 158.223 34.9538 158.315 35.416 158.497C35.8848 158.679 36.2949 158.995 36.6465 159.444C36.8092 159.223 36.9948 159.034 37.2031 158.878C37.4115 158.721 37.6296 158.594 37.8574 158.497C38.0918 158.399 38.3327 158.331 38.5801 158.292C38.8275 158.246 39.0716 158.223 39.3125 158.223C39.8659 158.223 40.3835 158.328 40.8652 158.536C41.3535 158.744 41.7767 159.031 42.1348 159.395C42.4993 159.753 42.7858 160.177 42.9941 160.665C43.2025 161.153 43.3066 161.674 43.3066 162.227V168.868ZM51.002 168.868H44.9082V166.212H51.002C51.1842 166.212 51.3405 166.147 51.4707 166.016C51.6009 165.886 51.666 165.73 51.666 165.548C51.666 165.359 51.6009 165.235 51.4707 165.177C51.3405 165.118 51.1842 165.089 51.002 165.089H48.2285C47.7663 165.089 47.3333 165.001 46.9297 164.825C46.526 164.649 46.1745 164.412 45.875 164.112C45.5755 163.806 45.3379 163.451 45.1621 163.048C44.9928 162.644 44.9082 162.211 44.9082 161.749C44.9082 161.287 44.9928 160.854 45.1621 160.45C45.3379 160.046 45.5755 159.695 45.875 159.395C46.1745 159.096 46.526 158.861 46.9297 158.692C47.3333 158.516 47.7663 158.428 48.2285 158.428H53.6289V161.085H48.2285C48.0462 161.085 47.89 161.15 47.7598 161.28C47.6296 161.41 47.5645 161.566 47.5645 161.749C47.5645 161.938 47.6296 162.1 47.7598 162.237C47.89 162.367 48.0462 162.432 48.2285 162.432H51.002C51.4577 162.432 51.8874 162.51 52.291 162.667C52.6947 162.816 53.0462 163.028 53.3457 163.302C53.6452 163.575 53.8828 163.904 54.0586 164.288C54.2344 164.672 54.3223 165.092 54.3223 165.548C54.3223 166.01 54.2344 166.443 54.0586 166.846C53.8828 167.244 53.6452 167.595 53.3457 167.901C53.0462 168.201 52.6947 168.438 52.291 168.614C51.8874 168.783 51.4577 168.868 51.002 168.868Z" fill="#1F1F39"/>
<path d="M4.38086 123.952H1.57812V109.948H4.38086V123.952ZM9.37109 123.952H6.70508V113.493H7.34961L8.22852 114.508C8.6582 114.118 9.14323 113.818 9.68359 113.61C10.2305 113.395 10.8001 113.288 11.3926 113.288C12.0306 113.288 12.6328 113.411 13.1992 113.659C13.7656 113.9 14.2604 114.235 14.6836 114.665C15.1068 115.088 15.4388 115.586 15.6797 116.159C15.9271 116.725 16.0508 117.331 16.0508 117.975V123.952H13.3848V117.975C13.3848 117.702 13.3327 117.444 13.2285 117.204C13.1243 116.956 12.9811 116.741 12.7988 116.559C12.6165 116.377 12.4049 116.234 12.1641 116.129C11.9232 116.025 11.666 115.973 11.3926 115.973C11.1126 115.973 10.849 116.025 10.6016 116.129C10.3542 116.234 10.1393 116.377 9.95703 116.559C9.77474 116.741 9.63151 116.956 9.52734 117.204C9.42318 117.444 9.37109 117.702 9.37109 117.975V123.952ZM20.4941 123.952L16.5098 113.493H19.5469L21.832 120.016L24.1074 113.493H27.1543L23.1699 123.952H20.4941ZM32.0176 121.393C32.1217 121.426 32.2259 121.448 32.3301 121.461C32.4342 121.468 32.5384 121.471 32.6426 121.471C32.903 121.471 33.1536 121.435 33.3945 121.364C33.6354 121.292 33.86 121.191 34.0684 121.061C34.2832 120.924 34.472 120.762 34.6348 120.573C34.804 120.377 34.9408 120.163 35.0449 119.928L36.998 121.891C36.7507 122.243 36.4642 122.558 36.1387 122.838C35.8197 123.118 35.4714 123.356 35.0938 123.551C34.7227 123.747 34.3288 123.893 33.9121 123.991C33.502 124.095 33.0788 124.147 32.6426 124.147C31.9069 124.147 31.2135 124.01 30.5625 123.737C29.918 123.463 29.3516 123.083 28.8633 122.594C28.3815 122.106 28.0007 121.527 27.7207 120.856C27.4408 120.179 27.3008 119.437 27.3008 118.629C27.3008 117.803 27.4408 117.047 27.7207 116.364C28.0007 115.68 28.3815 115.097 28.8633 114.616C29.3516 114.134 29.918 113.76 30.5625 113.493C31.2135 113.226 31.9069 113.092 32.6426 113.092C33.0788 113.092 33.5052 113.144 33.9219 113.249C34.3385 113.353 34.7324 113.502 35.1035 113.698C35.4811 113.893 35.8327 114.134 36.1582 114.42C36.4837 114.7 36.7702 115.016 37.0176 115.368L32.0176 121.393ZM33.3848 115.895C33.2611 115.849 33.1374 115.82 33.0137 115.807C32.8965 115.794 32.7728 115.788 32.6426 115.788C32.278 115.788 31.9329 115.856 31.6074 115.993C31.2884 116.123 31.0085 116.312 30.7676 116.559C30.5332 116.806 30.3477 117.106 30.2109 117.458C30.0742 117.803 30.0059 118.193 30.0059 118.629C30.0059 118.727 30.0091 118.838 30.0156 118.961C30.0286 119.085 30.0449 119.212 30.0645 119.342C30.0905 119.466 30.1198 119.586 30.1523 119.704C30.1849 119.821 30.2272 119.925 30.2793 120.016L33.3848 115.895ZM44.1074 123.952H38.0137V121.295H44.1074C44.2897 121.295 44.446 121.23 44.5762 121.1C44.7064 120.97 44.7715 120.814 44.7715 120.631C44.7715 120.443 44.7064 120.319 44.5762 120.26C44.446 120.202 44.2897 120.172 44.1074 120.172H41.334C40.8717 120.172 40.4388 120.084 40.0352 119.909C39.6315 119.733 39.2799 119.495 38.9805 119.196C38.681 118.89 38.4434 118.535 38.2676 118.131C38.0983 117.728 38.0137 117.295 38.0137 116.833C38.0137 116.37 38.0983 115.937 38.2676 115.534C38.4434 115.13 38.681 114.778 38.9805 114.479C39.2799 114.18 39.6315 113.945 40.0352 113.776C40.4388 113.6 40.8717 113.512 41.334 113.512H46.7344V116.168H41.334C41.1517 116.168 40.9954 116.234 40.8652 116.364C40.735 116.494 40.6699 116.65 40.6699 116.833C40.6699 117.021 40.735 117.184 40.8652 117.321C40.9954 117.451 41.1517 117.516 41.334 117.516H44.1074C44.5632 117.516 44.9928 117.594 45.3965 117.75C45.8001 117.9 46.1517 118.112 46.4512 118.385C46.7507 118.659 46.9883 118.987 47.1641 119.372C47.3398 119.756 47.4277 120.176 47.4277 120.631C47.4277 121.094 47.3398 121.527 47.1641 121.93C46.9883 122.327 46.7507 122.679 46.4512 122.985C46.1517 123.284 45.8001 123.522 45.3965 123.698C44.9928 123.867 44.5632 123.952 44.1074 123.952ZM54.0977 123.952C53.4531 123.952 52.8477 123.831 52.2812 123.59C51.7148 123.343 51.2168 123.008 50.7871 122.584C50.3639 122.155 50.0286 121.657 49.7812 121.09C49.5404 120.524 49.4199 119.918 49.4199 119.274V116.168H48.1211V113.512H49.4199V109.333H52.0762V113.512H56.1191V116.168H52.0762V119.274C52.0762 119.554 52.1283 119.818 52.2324 120.065C52.3366 120.306 52.4798 120.517 52.6621 120.7C52.8444 120.882 53.0592 121.028 53.3066 121.139C53.554 121.243 53.8177 121.295 54.0977 121.295H56.1191V123.952H54.0977ZM67.7305 118.629C67.7305 119.411 67.5905 120.14 67.3105 120.817C67.0306 121.487 66.6497 122.07 66.168 122.565C65.6862 123.053 65.1198 123.441 64.4688 123.727C63.8242 124.007 63.1309 124.147 62.3887 124.147C61.653 124.147 60.9596 124.007 60.3086 123.727C59.6641 123.441 59.0977 123.053 58.6094 122.565C58.1276 122.07 57.7467 121.487 57.4668 120.817C57.1868 120.14 57.0469 119.411 57.0469 118.629C57.0469 117.835 57.1868 117.099 57.4668 116.422C57.7467 115.745 58.1276 115.163 58.6094 114.674C59.0977 114.18 59.6641 113.792 60.3086 113.512C60.9596 113.232 61.653 113.092 62.3887 113.092C63.1309 113.092 63.8242 113.226 64.4688 113.493C65.1198 113.753 65.6862 114.127 66.168 114.616C66.6497 115.097 67.0306 115.68 67.3105 116.364C67.5905 117.041 67.7305 117.796 67.7305 118.629ZM65.0449 118.629C65.0449 118.2 64.9733 117.812 64.8301 117.467C64.6934 117.116 64.5046 116.816 64.2637 116.569C64.0228 116.315 63.7396 116.123 63.4141 115.993C63.0951 115.856 62.7533 115.788 62.3887 115.788C62.0241 115.788 61.679 115.856 61.3535 115.993C61.0345 116.123 60.7546 116.315 60.5137 116.569C60.2793 116.816 60.0938 117.116 59.957 117.467C59.8203 117.812 59.752 118.2 59.752 118.629C59.752 119.033 59.8203 119.407 59.957 119.752C60.0938 120.097 60.2793 120.397 60.5137 120.651C60.7546 120.905 61.0345 121.107 61.3535 121.256C61.679 121.4 62.0241 121.471 62.3887 121.471C62.7533 121.471 63.0951 121.403 63.4141 121.266C63.7396 121.129 64.0228 120.937 64.2637 120.69C64.5046 120.443 64.6934 120.143 64.8301 119.792C64.9733 119.44 65.0449 119.053 65.0449 118.629ZM71.8711 123.952H69.2051V113.493H69.8496L70.7285 114.733C71.1582 114.342 71.6465 114.043 72.1934 113.834C72.7402 113.62 73.3066 113.512 73.8926 113.512H76.2461V116.168H73.8926C73.6126 116.168 73.349 116.221 73.1016 116.325C72.8542 116.429 72.6393 116.572 72.457 116.754C72.2747 116.937 72.1315 117.152 72.0273 117.399C71.9232 117.646 71.8711 117.91 71.8711 118.19V123.952ZM83.1113 123.952H77.0176V121.295H83.1113C83.2936 121.295 83.4499 121.23 83.5801 121.1C83.7103 120.97 83.7754 120.814 83.7754 120.631C83.7754 120.443 83.7103 120.319 83.5801 120.26C83.4499 120.202 83.2936 120.172 83.1113 120.172H80.3379C79.8757 120.172 79.4427 120.084 79.0391 119.909C78.6354 119.733 78.2839 119.495 77.9844 119.196C77.6849 118.89 77.4473 118.535 77.2715 118.131C77.1022 117.728 77.0176 117.295 77.0176 116.833C77.0176 116.37 77.1022 115.937 77.2715 115.534C77.4473 115.13 77.6849 114.778 77.9844 114.479C78.2839 114.18 78.6354 113.945 79.0391 113.776C79.4427 113.6 79.8757 113.512 80.3379 113.512H85.7383V116.168H80.3379C80.1556 116.168 79.9993 116.234 79.8691 116.364C79.7389 116.494 79.6738 116.65 79.6738 116.833C79.6738 117.021 79.7389 117.184 79.8691 117.321C79.9993 117.451 80.1556 117.516 80.3379 117.516H83.1113C83.5671 117.516 83.9967 117.594 84.4004 117.75C84.804 117.9 85.1556 118.112 85.4551 118.385C85.7546 118.659 85.9922 118.987 86.168 119.372C86.3438 119.756 86.4316 120.176 86.4316 120.631C86.4316 121.094 86.3438 121.527 86.168 121.93C85.9922 122.327 85.7546 122.679 85.4551 122.985C85.1556 123.284 84.804 123.522 84.4004 123.698C83.9967 123.867 83.5671 123.952 83.1113 123.952Z" fill="#1F1F39"/>
<path d="M4.38086 67.8335V73.439H7.18359C7.56771 73.439 7.92904 73.3674 8.26758 73.2241C8.60612 73.0744 8.90234 72.8726 9.15625 72.6187C9.41016 72.3647 9.60872 72.0685 9.75195 71.73C9.90169 71.3849 9.97656 71.0203 9.97656 70.6362C9.97656 70.2521 9.90169 69.8908 9.75195 69.5522C9.60872 69.2072 9.41016 68.9077 9.15625 68.6538C8.90234 68.3999 8.60612 68.2013 8.26758 68.0581C7.92904 67.9084 7.56771 67.8335 7.18359 67.8335H4.38086ZM4.38086 79.0347H1.57812V65.0308H7.18359C7.69792 65.0308 8.19271 65.0991 8.66797 65.2358C9.14323 65.366 9.58594 65.5549 9.99609 65.8022C10.4128 66.0431 10.7904 66.3361 11.1289 66.6812C11.474 67.0197 11.7669 67.3973 12.0078 67.814C12.2552 68.2306 12.444 68.6766 12.5742 69.1519C12.7109 69.6271 12.7793 70.1219 12.7793 70.6362C12.7793 71.4045 12.6328 72.1304 12.3398 72.814C12.0469 73.491 11.6465 74.0835 11.1387 74.5913C10.6309 75.0991 10.0352 75.4995 9.35156 75.7925C8.67448 76.0854 7.95182 76.2319 7.18359 76.2319H4.38086V79.0347ZM16.8125 79.0347H14.1465V68.5757H14.791L15.6699 69.8159C16.0996 69.4253 16.5879 69.1258 17.1348 68.9175C17.6816 68.7026 18.248 68.5952 18.834 68.5952H21.1875V71.2515H18.834C18.554 71.2515 18.2904 71.3035 18.043 71.4077C17.7956 71.5119 17.5807 71.6551 17.3984 71.8374C17.2161 72.0197 17.0729 72.2345 16.9688 72.4819C16.8646 72.7293 16.8125 72.993 16.8125 73.2729V79.0347ZM26.3926 76.4761C26.4967 76.5086 26.6009 76.5314 26.7051 76.5444C26.8092 76.5509 26.9134 76.5542 27.0176 76.5542C27.278 76.5542 27.5286 76.5184 27.7695 76.4468C28.0104 76.3752 28.235 76.2743 28.4434 76.144C28.6582 76.0073 28.847 75.8446 29.0098 75.6558C29.179 75.4604 29.3158 75.2456 29.4199 75.0112L31.373 76.9741C31.1257 77.3257 30.8392 77.6414 30.5137 77.9214C30.1947 78.2013 29.8464 78.439 29.4688 78.6343C29.0977 78.8296 28.7038 78.9761 28.2871 79.0737C27.877 79.1779 27.4538 79.23 27.0176 79.23C26.2819 79.23 25.5885 79.0933 24.9375 78.8198C24.293 78.5464 23.7266 78.1655 23.2383 77.6772C22.7565 77.189 22.3757 76.6095 22.0957 75.939C21.8158 75.2619 21.6758 74.5197 21.6758 73.7124C21.6758 72.8856 21.8158 72.1304 22.0957 71.4468C22.3757 70.7632 22.7565 70.1805 23.2383 69.6987C23.7266 69.217 24.293 68.8426 24.9375 68.5757C25.5885 68.3088 26.2819 68.1753 27.0176 68.1753C27.4538 68.1753 27.8802 68.2274 28.2969 68.3315C28.7135 68.4357 29.1074 68.5854 29.4785 68.7808C29.8561 68.9761 30.2077 69.217 30.5332 69.5034C30.8587 69.7834 31.1452 70.0991 31.3926 70.4507L26.3926 76.4761ZM27.7598 70.978C27.6361 70.9325 27.5124 70.9032 27.3887 70.8901C27.2715 70.8771 27.1478 70.8706 27.0176 70.8706C26.653 70.8706 26.3079 70.939 25.9824 71.0757C25.6634 71.2059 25.3835 71.3947 25.1426 71.6421C24.9082 71.8895 24.7227 72.189 24.5859 72.5405C24.4492 72.8856 24.3809 73.2762 24.3809 73.7124C24.3809 73.8101 24.3841 73.9207 24.3906 74.0444C24.4036 74.1681 24.4199 74.2951 24.4395 74.4253C24.4655 74.549 24.4948 74.6694 24.5273 74.7866C24.5599 74.9038 24.6022 75.008 24.6543 75.0991L27.7598 70.978ZM38.4824 79.0347H32.3887V76.3784H38.4824C38.6647 76.3784 38.821 76.3133 38.9512 76.1831C39.0814 76.0529 39.1465 75.8966 39.1465 75.7144C39.1465 75.5256 39.0814 75.4019 38.9512 75.3433C38.821 75.2847 38.6647 75.2554 38.4824 75.2554H35.709C35.2467 75.2554 34.8138 75.1675 34.4102 74.9917C34.0065 74.8159 33.6549 74.5783 33.3555 74.2788C33.056 73.9728 32.8184 73.618 32.6426 73.2144C32.4733 72.8107 32.3887 72.3778 32.3887 71.9155C32.3887 71.4533 32.4733 71.0203 32.6426 70.6167C32.8184 70.2131 33.056 69.8615 33.3555 69.562C33.6549 69.2625 34.0065 69.0282 34.4102 68.8589C34.8138 68.6831 35.2467 68.5952 35.709 68.5952H41.1094V71.2515H35.709C35.5267 71.2515 35.3704 71.3166 35.2402 71.4468C35.11 71.577 35.0449 71.7332 35.0449 71.9155C35.0449 72.1043 35.11 72.2671 35.2402 72.4038C35.3704 72.534 35.5267 72.5991 35.709 72.5991H38.4824C38.9382 72.5991 39.3678 72.6772 39.7715 72.8335C40.1751 72.9832 40.5267 73.1948 40.8262 73.4683C41.1257 73.7417 41.3633 74.0705 41.5391 74.4546C41.7148 74.8387 41.8027 75.2586 41.8027 75.7144C41.8027 76.1766 41.7148 76.6095 41.5391 77.0132C41.3633 77.4103 41.1257 77.7619 40.8262 78.0679C40.5267 78.3674 40.1751 78.605 39.7715 78.7808C39.3678 78.95 38.9382 79.0347 38.4824 79.0347ZM48.9707 79.0347H42.877V76.3784H48.9707C49.153 76.3784 49.3092 76.3133 49.4395 76.1831C49.5697 76.0529 49.6348 75.8966 49.6348 75.7144C49.6348 75.5256 49.5697 75.4019 49.4395 75.3433C49.3092 75.2847 49.153 75.2554 48.9707 75.2554H46.1973C45.735 75.2554 45.3021 75.1675 44.8984 74.9917C44.4948 74.8159 44.1432 74.5783 43.8438 74.2788C43.5443 73.9728 43.3066 73.618 43.1309 73.2144C42.9616 72.8107 42.877 72.3778 42.877 71.9155C42.877 71.4533 42.9616 71.0203 43.1309 70.6167C43.3066 70.2131 43.5443 69.8615 43.8438 69.562C44.1432 69.2625 44.4948 69.0282 44.8984 68.8589C45.3021 68.6831 45.735 68.5952 46.1973 68.5952H51.5977V71.2515H46.1973C46.015 71.2515 45.8587 71.3166 45.7285 71.4468C45.5983 71.577 45.5332 71.7332 45.5332 71.9155C45.5332 72.1043 45.5983 72.2671 45.7285 72.4038C45.8587 72.534 46.015 72.5991 46.1973 72.5991H48.9707C49.4264 72.5991 49.8561 72.6772 50.2598 72.8335C50.6634 72.9832 51.015 73.1948 51.3145 73.4683C51.6139 73.7417 51.8516 74.0705 52.0273 74.4546C52.2031 74.8387 52.291 75.2586 52.291 75.7144C52.291 76.1766 52.2031 76.6095 52.0273 77.0132C51.8516 77.4103 51.6139 77.7619 51.3145 78.0679C51.015 78.3674 50.6634 78.605 50.2598 78.7808C49.8561 78.95 49.4264 79.0347 48.9707 79.0347Z" fill="#1F1F39"/>
<path d="M23.0723 29.3936H18.8828V14.3936C18.8828 14.1006 18.8242 13.8271 18.707 13.5732C18.5996 13.3193 18.4482 13.0996 18.2529 12.9141C18.0674 12.7188 17.8477 12.5674 17.5938 12.46C17.3398 12.3525 17.0664 12.2988 16.7734 12.2988C16.4805 12.2988 16.207 12.3525 15.9531 12.46C15.6992 12.5674 15.4746 12.7188 15.2793 12.9141C15.0938 13.0996 14.9473 13.3193 14.8398 13.5732C14.7324 13.8271 14.6787 14.1006 14.6787 14.3936V29.3936H10.4746V14.3936C10.4746 14.1006 10.4209 13.8271 10.3135 13.5732C10.2061 13.3193 10.0547 13.0996 9.85938 12.9141C9.67383 12.7188 9.4541 12.5674 9.2002 12.46C8.94629 12.3525 8.67285 12.2988 8.37988 12.2988C8.08691 12.2988 7.81348 12.3525 7.55957 12.46C7.30566 12.5674 7.08105 12.7188 6.88574 12.9141C6.7002 13.0996 6.55371 13.3193 6.44629 13.5732C6.33887 13.8271 6.28516 14.1006 6.28516 14.3936V29.3936H2.08105V14.3936C2.08105 13.5244 2.24219 12.709 2.56445 11.9473C2.89648 11.1758 3.3457 10.5068 3.91211 9.94043C4.48828 9.36426 5.15723 8.91504 5.91895 8.59277C6.69043 8.26074 7.51074 8.09473 8.37988 8.09473C9.16113 8.09473 9.91309 8.23633 10.6357 8.51953C11.3584 8.79297 12.0078 9.19336 12.584 9.7207C13.1602 9.19336 13.8047 8.79297 14.5176 8.51953C15.2402 8.23633 15.9922 8.09473 16.7734 8.09473C17.6426 8.09473 18.458 8.26074 19.2197 8.59277C19.9912 8.91504 20.6602 9.36426 21.2266 9.94043C21.8027 10.5068 22.252 11.1758 22.5742 11.9473C22.9062 12.709 23.0723 13.5244 23.0723 14.3936V29.3936ZM41.3975 21.4102C41.3975 22.582 41.1875 23.6758 40.7676 24.6914C40.3477 25.6973 39.7764 26.5713 39.0537 27.3135C38.3311 28.0459 37.4814 28.627 36.5049 29.0566C35.5381 29.4766 34.498 29.6865 33.3848 29.6865C32.2812 29.6865 31.2412 29.4766 30.2646 29.0566C29.2979 28.627 28.4482 28.0459 27.7158 27.3135C26.9932 26.5713 26.4219 25.6973 26.002 24.6914C25.582 23.6758 25.3721 22.582 25.3721 21.4102C25.3721 20.2188 25.582 19.1152 26.002 18.0996C26.4219 17.084 26.9932 16.21 27.7158 15.4775C28.4482 14.7354 29.2979 14.1543 30.2646 13.7344C31.2412 13.3145 32.2812 13.1045 33.3848 13.1045C34.498 13.1045 35.5381 13.3047 36.5049 13.7051C37.4814 14.0957 38.3311 14.6572 39.0537 15.3896C39.7764 16.1123 40.3477 16.9863 40.7676 18.0117C41.1875 19.0273 41.3975 20.1602 41.3975 21.4102ZM37.3691 21.4102C37.3691 20.7656 37.2617 20.1846 37.0469 19.667C36.8418 19.1396 36.5586 18.6904 36.1973 18.3193C35.8359 17.9385 35.4111 17.6504 34.9229 17.4551C34.4443 17.25 33.9316 17.1475 33.3848 17.1475C32.8379 17.1475 32.3203 17.25 31.832 17.4551C31.3535 17.6504 30.9336 17.9385 30.5723 18.3193C30.2207 18.6904 29.9424 19.1396 29.7373 19.667C29.5322 20.1846 29.4297 20.7656 29.4297 21.4102C29.4297 22.0156 29.5322 22.5771 29.7373 23.0947C29.9424 23.6123 30.2207 24.0615 30.5723 24.4424C30.9336 24.8232 31.3535 25.126 31.832 25.3506C32.3203 25.5654 32.8379 25.6729 33.3848 25.6729C33.9316 25.6729 34.4443 25.5703 34.9229 25.3652C35.4111 25.1602 35.8359 24.8721 36.1973 24.501C36.5586 24.1299 36.8418 23.6807 37.0469 23.1533C37.2617 22.626 37.3691 22.0449 37.3691 21.4102ZM47.6084 29.3936H43.6094V13.7051H44.5762L45.8945 15.5654C46.5391 14.9795 47.2715 14.5303 48.0918 14.2178C48.9121 13.8955 49.7617 13.7344 50.6406 13.7344H54.1709V17.7188H50.6406C50.2207 17.7188 49.8252 17.7969 49.4541 17.9531C49.083 18.1094 48.7607 18.3242 48.4873 18.5977C48.2139 18.8711 47.999 19.1934 47.8428 19.5645C47.6865 19.9355 47.6084 20.3311 47.6084 20.751V29.3936ZM61.9785 25.5557C62.1348 25.6045 62.291 25.6387 62.4473 25.6582C62.6035 25.668 62.7598 25.6729 62.916 25.6729C63.3066 25.6729 63.6826 25.6191 64.0439 25.5117C64.4053 25.4043 64.7422 25.2529 65.0547 25.0576C65.377 24.8525 65.6602 24.6084 65.9043 24.3252C66.1582 24.0322 66.3633 23.71 66.5195 23.3584L69.4492 26.3027C69.0781 26.8301 68.6484 27.3037 68.1602 27.7236C67.6816 28.1436 67.1592 28.5 66.5928 28.793C66.0361 29.0859 65.4453 29.3057 64.8203 29.4521C64.2051 29.6084 63.5703 29.6865 62.916 29.6865C61.8125 29.6865 60.7725 29.4814 59.7959 29.0713C58.8291 28.6611 57.9795 28.0898 57.2471 27.3574C56.5244 26.625 55.9531 25.7559 55.5332 24.75C55.1133 23.7344 54.9033 22.6211 54.9033 21.4102C54.9033 20.1699 55.1133 19.0371 55.5332 18.0117C55.9531 16.9863 56.5244 16.1123 57.2471 15.3896C57.9795 14.667 58.8291 14.1055 59.7959 13.7051C60.7725 13.3047 61.8125 13.1045 62.916 13.1045C63.5703 13.1045 64.21 13.1826 64.835 13.3389C65.46 13.4951 66.0508 13.7197 66.6074 14.0127C67.1738 14.3057 67.7012 14.667 68.1895 15.0967C68.6777 15.5166 69.1074 15.9902 69.4785 16.5176L61.9785 25.5557ZM64.0293 17.3086C63.8438 17.2402 63.6582 17.1963 63.4727 17.1768C63.2969 17.1572 63.1113 17.1475 62.916 17.1475C62.3691 17.1475 61.8516 17.25 61.3633 17.4551C60.8848 17.6504 60.4648 17.9336 60.1035 18.3047C59.752 18.6758 59.4736 19.125 59.2686 19.6523C59.0635 20.1699 58.9609 20.7559 58.9609 21.4102C58.9609 21.5566 58.9658 21.7227 58.9756 21.9082C58.9951 22.0938 59.0195 22.2842 59.0488 22.4795C59.0879 22.665 59.1318 22.8457 59.1807 23.0215C59.2295 23.1973 59.293 23.3535 59.3711 23.4902L64.0293 17.3086Z" fill="#0A033C"/>
</svg>
